<svg width="64" height="64" viewBox="0 0 64 64" fill="none" xmlns="http://www.w3.org/2000/svg">
<path d="M52.8 60.6C38.9 64 25 64 11.2 60.6C7.90001 59.7 4.20001 56.1 3.40001 52.8C6.19888e-06 38.9 6.19888e-06 25 3.40001 11.2C4.30001 7.9 7.90001 4.2 11.2 3.4C25.1 -1.43051e-06 39 -1.43051e-06 52.8 3.4C56.1 4.3 59.8 7.9 60.6 11.2C64 25.1 64 39 60.6 52.8C59.8 56.1 56.2 59.8 52.8 60.6Z" fill="#FDD402"/>
<path d="M28.9 51.1C40.1114 51.1 49.2 42.0114 49.2 30.8C49.2 19.5886 40.1114 10.5 28.9 10.5C17.6886 10.5 8.60001 19.5886 8.60001 30.8C8.60001 42.0114 17.6886 51.1 28.9 51.1Z" fill="#070308"/>
<path d="M53.9 52.8C53.7 52.8 53.6 52.7 53.4 52.6L42.2 45.2C41.3 45.9 40.3 46.7 39.4 47.3C39.2 47.4 39.2 47.4 39 47.4C38.8 47.4 38.5 47.3 38.4 47.1L34.2 41.6L19.9 23.3C19.7 23 19.7 22.6 20 22.4C20.2 22.2 20.3 22.2 20.6 22.2C20.8 22.2 21 22.3 21.1 22.4L38.4 37.1C39 36.3 39.5 35.3 39.8 34.4C39.9 34.2 40.1 33.9 40.4 33.8C40.5 33.8 40.5 33.8 40.6 33.8C40.8 33.8 41.1 33.9 41.2 34.1L45.7 40L54.6 51.5C54.8 51.8 54.8 52.2 54.5 52.4C54.2 52.6 54.1 52.8 53.9 52.8Z" fill="#E6B42C"/>
<path d="M20.5 22.8L38.5 38C39.4 37 40.1 35.7 40.5 34.4L45 40.3L53.9 52L42.3 44.3C41.4 45.2 40.3 46 39.2 46.6L34.9 41L20.5 22.8ZM20.5 21.3C20.1 21.3 19.8 21.5 19.5 21.8C18.9 22.4 18.9 23.2 19.3 23.8L33.5 42.2L37.7 47.7C38 48.1 38.4 48.3 38.9 48.3C39.2 48.3 39.5 48.2 39.6 48.1C40.5 47.5 41.3 47 42.1 46.3L52.9 53.3C53.1 53.5 53.5 53.5 53.7 53.5C54.1 53.5 54.5 53.3 54.8 53C55.4 52.4 55.4 51.7 54.9 51L45.9 39.4L41.4 33.5C41.1 33.1 40.7 32.9 40.2 32.9C40.1 32.9 40 32.9 40 32.9C39.4 33 39.1 33.4 38.8 33.8C38.6 34.5 38.2 35.1 37.9 35.8L21.4 21.8C21.2 21.5 20.9 21.3 20.5 21.3Z" fill="#070308"/>
<path d="M33.2 41.8C32.1 42.3 31 42.5 29.8 42.5C23.3 43.1 17.8 38.2 17.2 31.8C17 29.1 17.8 26.3 19.3 24.1C19.8 23.4 20.2 22.9 20.9 22.2C22.8 20.3 25.2 19.2 27.8 19C34.4 18.4 40.1 23.3 40.7 29.8C40.8 30.5 40.8 31 40.8 31.8L46 38.5C50.2 29 46 17.9 36.5 13.6C27 9.4 16 13.6 11.9 23.1C11.9 23.2 11.8 23.3 11.8 23.3C7.6 32.9 11.8 44 21.3 48.3C24.2 49.5 27.3 50.1 30.5 49.9C33 49.7 35.4 48.9 37.6 47.7L33.2 41.8Z" fill="white"/>
</svg>
